<svg xmlns="http://www.w3.org/2000/svg" width="148" height="184" viewBox="0 0 148 184">
<title>microsoft/conductor: 1 merged pull request</title>
<circle cx="74" cy="58" r="55" fill="none" stroke="#1f2328" stroke-opacity="0.33"/>
<circle cx="74" cy="58" r="47.5" fill="#f6f8fa" stroke="#1f2328" stroke-width="3"/>
<path fill="#1f2328" d="M77.5 42V61.2H83V66H66.2V61.2H72.4V45.1L73.4 45.5L66.2 50.3V44.9L70.8 42Z"/>
<path fill="#59636e" d="M52.6 84V76.8H54.2L55.1 81H55.2L56 76.8H57.6V84H56.7V79.9L56.7 77.5H56.6L55.8 81.6H54.4L53.6 77.5H53.5L53.5 79.9V84ZM60.8 84V76.8H65V77.8H61.8V79.9H64.6V80.8H61.8V83H64.9V84ZM68.1 84V76.8H70.5Q71.2 76.8 71.8 77.1Q72.3 77.3 72.5 77.8Q72.8 78.2 72.8 78.9Q72.8 79.5 72.5 79.9Q72.3 80.4 71.7 80.6Q71.2 80.9 70.5 80.9H69.1V84ZM71.8 84 69.9 80.7H71L73 84ZM69.1 80H70.6Q71.1 80 71.5 79.7Q71.8 79.4 71.8 78.9Q71.8 78.4 71.5 78.1Q71.1 77.8 70.6 77.8H69.1ZM77.6 84.1Q76.5 84.1 75.9 83.2Q75.3 82.2 75.3 80.4Q75.3 78.5 75.9 77.6Q76.6 76.7 77.9 76.7Q78.6 76.7 79.2 76.9Q79.7 77.2 80 77.8Q80.3 78.3 80.3 79.1H79.4Q79.2 78.4 78.9 78Q78.5 77.6 77.9 77.6Q77.1 77.6 76.7 78.3Q76.3 79 76.3 80.4Q76.3 81.9 76.7 82.5Q77.1 83.2 77.9 83.2Q78.3 83.2 78.6 83Q78.9 82.7 79.1 82.3Q79.3 81.9 79.3 81.4H77.8V80.4H80.2V84H79.3V83.4H79Q78.9 83.8 78.5 83.9Q78.1 84.1 77.6 84.1ZM83.5 84V76.8H87.7V77.8H84.5V79.9H87.3V80.8H84.5V83H87.6V84ZM90.6 84V76.8H92.6Q94.1 76.8 94.8 77.7Q95.5 78.6 95.5 80.4Q95.5 82.2 94.8 83.1Q94.1 84 92.6 84ZM91.6 83H92.6Q93.6 83 94 82.4Q94.5 81.7 94.5 80.4Q94.5 79.1 94 78.4Q93.6 77.8 92.6 77.8H91.6Z"/>
<path fill="#59636e" d="M36.3 133.4H37.5V133.9H38.4L37.8 134.3Q37.8 133.8 38.1 133.5Q38.4 133.2 38.8 133.2Q39.2 133.2 39.5 133.6Q39.8 133.9 39.9 134.4L39.2 134H40.6L40 134.3Q40 133.8 40.3 133.5Q40.7 133.2 41.1 133.2Q41.7 133.2 42.1 133.7Q42.4 134.2 42.4 135V140H41.3V135.5Q41.3 135 41.1 134.8Q40.9 134.6 40.6 134.6Q40.3 134.6 40.1 134.8Q39.9 135 39.9 135.5V140H38.8V135.5Q38.8 135 38.6 134.8Q38.5 134.6 38.1 134.6Q37.8 134.6 37.7 134.8Q37.5 135 37.5 135.5V140H36.3ZM44.8 133.4H48V138.9H50V140H44.8V138.9H46.8V134.5H44.8ZM47.3 132.4Q46.9 132.4 46.6 132.2Q46.4 131.9 46.4 131.5Q46.4 131.1 46.6 130.9Q46.9 130.6 47.3 130.6Q47.7 130.6 48 130.9Q48.2 131.1 48.2 131.5Q48.2 131.9 48 132.2Q47.7 132.4 47.3 132.4ZM54.9 140.2Q54 140.2 53.3 139.8Q52.7 139.3 52.3 138.6Q52 137.8 52 136.7Q52 135.7 52.3 134.9Q52.7 134.1 53.4 133.7Q54.1 133.2 55 133.2Q55.8 133.2 56.4 133.6Q57.1 133.9 57.4 134.5Q57.8 135.1 57.8 136H56.7Q56.5 135.2 56.1 134.8Q55.7 134.4 55 134.4Q54.1 134.4 53.6 135Q53.2 135.6 53.2 136.7Q53.2 137.8 53.6 138.4Q54.1 139 54.9 139Q55.5 139 55.9 138.7Q56.4 138.3 56.5 137.6H57.6Q57.6 138.4 57.2 139Q56.9 139.5 56.3 139.9Q55.7 140.2 54.9 140.2ZM59.6 133.4H62.2V133.9H62.6Q62.8 133.6 63.1 133.4Q63.4 133.2 63.9 133.2Q64.7 133.2 65.1 133.8Q65.6 134.3 65.6 135.3V136.3H64.3V135.5Q64.3 134.4 63.4 134.4Q62.9 134.4 62.6 134.9Q62.3 135.4 62.3 136.4V138.9H64.3V140H59.8V138.9H61.1V134.5H59.6ZM70.2 140.2Q69.2 140.2 68.6 139.8Q67.9 139.3 67.5 138.5Q67.2 137.8 67.2 136.7Q67.2 135.6 67.5 134.9Q67.9 134.1 68.6 133.6Q69.2 133.2 70.2 133.2Q71.1 133.2 71.7 133.6Q72.4 134.1 72.8 134.9Q73.1 135.6 73.1 136.7Q73.1 137.8 72.8 138.5Q72.4 139.3 71.7 139.8Q71.1 140.2 70.2 140.2ZM70.2 139Q71 139 71.5 138.4Q71.9 137.8 71.9 136.7Q71.9 135.6 71.5 135Q71 134.4 70.2 134.4Q69.3 134.4 68.8 135Q68.4 135.6 68.4 136.7Q68.4 137.8 68.8 138.4Q69.3 139 70.2 139ZM76.3 138Q76.5 138.5 76.9 138.8Q77.3 139 77.9 139Q78.6 139 78.9 138.8Q79.3 138.6 79.3 138.1Q79.3 137.8 79 137.6Q78.7 137.4 78.2 137.4L77.4 137.2Q76.3 137.1 75.8 136.6Q75.2 136.1 75.2 135.3Q75.2 134.3 76 133.8Q76.7 133.2 77.9 133.2Q79.2 133.2 79.9 133.8Q80.6 134.5 80.7 135.6H79.6Q79.4 135 79 134.7Q78.6 134.4 77.9 134.4Q77.2 134.4 76.8 134.6Q76.4 134.8 76.4 135.3Q76.4 135.6 76.7 135.8Q77 136 77.6 136L78.4 136.2Q79.5 136.3 80 136.8Q80.5 137.3 80.5 138.1Q80.5 138.8 80.2 139.2Q79.9 139.7 79.3 139.9Q78.7 140.2 77.9 140.2Q76.7 140.2 76 139.6Q75.3 139 75.2 138ZM85.6 140.2Q84.6 140.2 84 139.8Q83.3 139.3 82.9 138.5Q82.6 137.8 82.6 136.7Q82.6 135.6 82.9 134.9Q83.3 134.1 84 133.6Q84.6 133.2 85.6 133.2Q86.5 133.2 87.1 133.6Q87.8 134.1 88.2 134.9Q88.5 135.6 88.5 136.7Q88.5 137.8 88.2 138.5Q87.8 139.3 87.1 139.8Q86.5 140.2 85.6 140.2ZM85.6 139Q86.4 139 86.9 138.4Q87.3 137.8 87.3 136.7Q87.3 135.6 86.9 135Q86.4 134.4 85.6 134.4Q84.7 134.4 84.2 135Q83.8 135.6 83.8 136.7Q83.8 137.8 84.2 138.4Q84.7 139 85.6 139ZM93.5 140H92.3V134.5H90.8V133.4H92.3V132.7Q92.3 131.7 92.9 131.1Q93.5 130.5 94.5 130.5Q95.5 130.5 96.1 131Q96.7 131.5 96.8 132.4H95.7Q95.5 132 95.2 131.8Q94.9 131.6 94.5 131.6Q94.1 131.6 93.8 131.9Q93.5 132.2 93.5 132.8V133.4H96V134.5H93.5ZM100.6 131.7V133.4H103.6V134.5H100.6V137.8Q100.6 138.4 100.9 138.7Q101.1 139 101.6 139Q102.1 139 102.4 138.7Q102.6 138.4 102.8 137.7H103.8Q103.8 138.9 103.2 139.5Q102.6 140.2 101.6 140.2Q100.5 140.2 100 139.6Q99.4 139 99.4 137.9V134.5H98V133.4H99.4V131.7ZM111.2 130.7 107.3 141.9H106.1L110 130.7Z"/>
<path fill="#1f2328" d="M43.4 156.2Q42.5 156.2 41.8 155.8Q41.1 155.3 40.8 154.6Q40.4 153.8 40.4 152.7Q40.4 151.7 40.8 150.9Q41.2 150.1 41.8 149.7Q42.5 149.2 43.5 149.2Q44.3 149.2 44.9 149.6Q45.5 149.9 45.9 150.5Q46.2 151.1 46.2 152H45.1Q45 151.2 44.6 150.8Q44.1 150.4 43.4 150.4Q42.6 150.4 42.1 151Q41.6 151.6 41.6 152.7Q41.6 153.8 42.1 154.4Q42.5 155 43.4 155Q44 155 44.4 154.7Q44.8 154.3 45 153.6H46.1Q46 154.4 45.7 155Q45.3 155.5 44.7 155.9Q44.1 156.2 43.4 156.2ZM50.9 156.2Q50 156.2 49.3 155.8Q48.6 155.3 48.3 154.5Q47.9 153.8 47.9 152.7Q47.9 151.6 48.3 150.9Q48.6 150.1 49.3 149.6Q50 149.2 50.9 149.2Q51.8 149.2 52.5 149.6Q53.2 150.1 53.5 150.9Q53.9 151.6 53.9 152.7Q53.9 153.8 53.5 154.5Q53.2 155.3 52.5 155.8Q51.8 156.2 50.9 156.2ZM50.9 155Q51.7 155 52.2 154.4Q52.7 153.8 52.7 152.7Q52.7 151.6 52.2 151Q51.7 150.4 50.9 150.4Q50.1 150.4 49.6 151Q49.1 151.6 49.1 152.7Q49.1 153.8 49.6 154.4Q50.1 155 50.9 155ZM56 156V149.4H57.2V149.9H57.5Q57.8 149.6 58.2 149.4Q58.6 149.2 59 149.2Q59.7 149.2 60.3 149.5Q60.8 149.8 61 150.4Q61.3 151 61.3 151.7V156H60.1V152Q60.1 151.2 59.7 150.8Q59.4 150.4 58.7 150.4Q57.9 150.4 57.6 150.8Q57.2 151.2 57.2 152V156ZM65.8 156.2Q65 156.2 64.4 155.8Q63.8 155.3 63.5 154.5Q63.1 153.8 63.1 152.7Q63.1 151.6 63.5 150.9Q63.8 150.1 64.4 149.6Q65 149.2 65.8 149.2Q66.4 149.2 66.8 149.4Q67.3 149.6 67.5 150H67.8V146.7H69V156H67.8V155.4H67.5Q67.3 155.8 66.8 156Q66.4 156.2 65.8 156.2ZM66.1 155Q66.9 155 67.4 154.4Q67.8 153.8 67.8 152.7Q67.8 151.6 67.4 151Q66.9 150.4 66.1 150.4Q65.3 150.4 64.8 151Q64.3 151.6 64.3 152.7Q64.3 153.8 64.8 154.4Q65.3 155 66.1 155ZM76.6 149.4V156H75.4V155.5H75.1Q74.8 155.8 74.4 156Q74 156.2 73.6 156.2Q72.9 156.2 72.4 155.9Q71.8 155.6 71.6 155Q71.3 154.4 71.3 153.7V149.4H72.5V153.4Q72.5 154.2 72.9 154.6Q73.2 155 73.9 155Q74.7 155 75 154.6Q75.4 154.2 75.4 153.4V149.4ZM81.9 156.2Q81 156.2 80.3 155.8Q79.6 155.3 79.3 154.6Q78.9 153.8 78.9 152.7Q78.9 151.7 79.3 150.9Q79.7 150.1 80.3 149.7Q81 149.2 82 149.2Q82.8 149.2 83.4 149.6Q84 149.9 84.4 150.5Q84.7 151.1 84.7 152H83.6Q83.5 151.2 83.1 150.8Q82.6 150.4 81.9 150.4Q81.1 150.4 80.6 151Q80.1 151.6 80.1 152.7Q80.1 153.8 80.6 154.4Q81 155 81.9 155Q82.5 155 82.9 154.7Q83.3 154.3 83.5 153.6H84.6Q84.5 154.4 84.2 155Q83.8 155.5 83.2 155.9Q82.6 156.2 81.9 156.2ZM89.1 147.7V149.4H92.1V150.5H89.1V153.8Q89.1 154.4 89.3 154.7Q89.6 155 90 155Q90.5 155 90.8 154.7Q91.1 154.4 91.2 153.7H92.3Q92.2 154.9 91.6 155.5Q91 156.2 90 156.2Q89 156.2 88.4 155.6Q87.9 155 87.9 153.9V150.5H86.4V149.4H87.9V147.7ZM97.1 156.2Q96.2 156.2 95.5 155.8Q94.8 155.3 94.5 154.5Q94.1 153.8 94.1 152.7Q94.1 151.6 94.5 150.9Q94.8 150.1 95.5 149.6Q96.2 149.2 97.1 149.2Q98 149.2 98.7 149.6Q99.4 150.1 99.7 150.9Q100.1 151.6 100.1 152.7Q100.1 153.8 99.7 154.5Q99.4 155.3 98.7 155.8Q98 156.2 97.1 156.2ZM97.1 155Q97.9 155 98.4 154.4Q98.9 153.8 98.9 152.7Q98.9 151.6 98.4 151Q97.9 150.4 97.1 150.4Q96.3 150.4 95.8 151Q95.3 151.6 95.3 152.7Q95.3 153.8 95.8 154.4Q96.3 155 97.1 155ZM102 149.4H104.6V149.9H104.9Q105.1 149.6 105.4 149.4Q105.8 149.2 106.2 149.2Q107 149.2 107.5 149.8Q107.9 150.3 107.9 151.3V152.3H106.7V151.5Q106.7 150.4 105.8 150.4Q105.2 150.4 104.9 150.9Q104.6 151.4 104.6 152.4V154.9H106.7V156H102.2V154.9H103.4V150.5H102Z"/>
<circle cx="74.0" cy="174" r="3" fill="#9a6700"/>
</svg>
